<?xml version="1.0" encoding="UTF-8" standalone="no"?>
<svg
   viewBox="0 0 36 36"
   version="1.1"
   id="svg1028"
   sodipodi:docname="moon behind large cloud.svg"
   inkscape:version="1.1 (ce6663b3b7, 2021-05-25)"
   xmlns:inkscape="http://www.inkscape.org/namespaces/inkscape"
   xmlns:sodipodi="http://sodipodi.sourceforge.net/DTD/sodipodi-0.dtd"
   xmlns="http://www.w3.org/2000/svg"
   xmlns:svg="http://www.w3.org/2000/svg">
  <defs
     id="defs1032" />
  <sodipodi:namedview
     id="namedview1030"
     pagecolor="#505050"
     bordercolor="#eeeeee"
     borderopacity="1"
     inkscape:pageshadow="0"
     inkscape:pageopacity="0"
     inkscape:pagecheckerboard="0"
     showgrid="false"
     inkscape:zoom="10.311974"
     inkscape:cx="3.1031886"
     inkscape:cy="15.661405"
     inkscape:window-width="1366"
     inkscape:window-height="740"
     inkscape:window-x="0"
     inkscape:window-y="28"
     inkscape:window-maximized="1"
     inkscape:current-layer="layer4" />
  <g
     inkscape:groupmode="layer"
     id="layer4"
     inkscape:label="Layer 2"
     style="display:inline">
    <g
       id="g1153"
       transform="matrix(0.48911684,0,0,0.48911684,4.031092,9.6996473)">
      <circle
         fill="#ffd983"
         cx="18"
         cy="13.910997"
         r="18"
         id="circle1114" />
      <g
         fill="#ffcc4d"
         id="g1134">
        <circle
           cx="10.5"
           cy="8.5"
           r="3.5"
           id="circle1116" />
        <circle
           cx="20"
           cy="17"
           r="3"
           id="circle1118" />
        <circle
           cx="24.5"
           cy="28.5"
           r="3.5"
           id="circle1120" />
        <circle
           cx="22"
           cy="5"
           r="2"
           id="circle1122" />
        <circle
           cx="3"
           cy="18"
           r="1"
           id="circle1124" />
        <circle
           cx="30"
           cy="9"
           r="1"
           id="circle1126" />
        <circle
           cx="15"
           cy="31"
           r="1"
           id="circle1128" />
        <circle
           cx="32"
           cy="19"
           r="2"
           id="circle1130" />
        <circle
           cx="10"
           cy="23"
           r="2"
           id="circle1132" />
      </g>
    </g>
    <path
       fill="#e1e8ed"
       d="m 27.998841,14.909529 c -0.826145,0 -1.620396,0.122429 -2.370409,0.3498 C 24.741587,12.780893 22.335168,11 19.495616,11 c -3.044289,0 -5.593712,2.048387 -6.299485,4.809749 -0.754127,-0.557622 -1.683156,-0.90022 -2.70169,-0.90022 -2.4866663,0 -4.5011024,1.969167 -4.5011024,4.39822 0,0.589515 0.1234588,1.150224 0.3384829,1.664636 -0.4290193,-0.116258 -0.8724422,-0.198563 -1.339528,-0.198563 -2.7623906,0 -5.00111018,2.187278 -5.00111018,4.88691 0,2.699633 2.23871958,4.886912 5.00111018,4.886912 H 27.997812 C 32.417637,30.547644 36,27.047586 36,22.728586 36,18.409585 32.417637,14.909529 27.998841,14.909529 Z"
       id="path1026"
       style="stroke-width:1.02882" />
  </g>
</svg>
