<?xml version="1.0" encoding="UTF-8" standalone="no"?>
<svg
   viewBox="0 0 36 36"
   version="1.1"
   id="svg8"
   sodipodi:docname="moon behind cloud.svg"
   inkscape:version="1.1 (ce6663b3b7, 2021-05-25)"
   xmlns:inkscape="http://www.inkscape.org/namespaces/inkscape"
   xmlns:sodipodi="http://sodipodi.sourceforge.net/DTD/sodipodi-0.dtd"
   xmlns="http://www.w3.org/2000/svg"
   xmlns:svg="http://www.w3.org/2000/svg">
  <defs
     id="defs12" />
  <sodipodi:namedview
     id="namedview10"
     pagecolor="#505050"
     bordercolor="#eeeeee"
     borderopacity="1"
     inkscape:pageshadow="0"
     inkscape:pageopacity="0"
     inkscape:pagecheckerboard="0"
     showgrid="false"
     showguides="false"
     inkscape:zoom="10.311974"
     inkscape:cx="11.443008"
     inkscape:cy="23.807275"
     inkscape:window-width="1366"
     inkscape:window-height="740"
     inkscape:window-x="0"
     inkscape:window-y="28"
     inkscape:window-maximized="1"
     inkscape:current-layer="layer2" />
  <g
     inkscape:groupmode="layer"
     id="layer2"
     inkscape:label="2"
     style="display:inline">
    <g
       id="g213"
       transform="matrix(0.50142232,0,0,0.50142232,6.9807765,3.0188115)">
      <circle
         fill="#ffd983"
         cx="18"
         cy="18"
         r="18"
         id="circle174" />
      <g
         fill="#ffcc4d"
         id="g194">
        <circle
           cx="10.5"
           cy="8.5"
           r="3.5"
           id="circle176" />
        <circle
           cx="20"
           cy="17"
           r="3"
           id="circle178" />
        <circle
           cx="24.5"
           cy="28.5"
           r="3.5"
           id="circle180" />
        <circle
           cx="22"
           cy="5"
           r="2"
           id="circle182" />
        <circle
           cx="3"
           cy="18"
           r="1"
           id="circle184" />
        <circle
           cx="30"
           cy="9"
           r="1"
           id="circle186" />
        <circle
           cx="15"
           cy="31"
           r="1"
           id="circle188" />
        <circle
           cx="32"
           cy="19"
           r="2"
           id="circle190" />
        <circle
           cx="10"
           cy="23"
           r="2"
           id="circle192" />
      </g>
    </g>
    <path
       fill="#e1e8ed"
       d="m 28,16 c -0.825,0 -1.62,0.125 -2.369,0.357 C 24.744,13.822 22.338,12 19.5,12 16.456,12 13.908,14.096 13.201,16.921 12.447,16.351 11.519,16 10.5,16 8.015,16 6,18.015 6,20.5 6,21.104 6.123,21.678 6.339,22.204 5.91,22.085 5.467,22 5,22 c -2.762,0 -5,2.238 -5,5 0,2.762 2.238,5 5,5 h 23 c 4.418,0 8,-3.581 8,-8 0,-4.418 -3.582,-8 -8,-8 z"
       id="path6"
       style="display:inline" />
  </g>
</svg>
