<?xml version="1.0" encoding="UTF-8" standalone="no"?>
<svg
   viewBox="0 0 36 36"
   version="1.1"
   id="svg2309"
   sodipodi:docname="moon behind small cloud.svg"
   inkscape:version="1.1 (ce6663b3b7, 2021-05-25)"
   xmlns:inkscape="http://www.inkscape.org/namespaces/inkscape"
   xmlns:sodipodi="http://sodipodi.sourceforge.net/DTD/sodipodi-0.dtd"
   xmlns="http://www.w3.org/2000/svg"
   xmlns:svg="http://www.w3.org/2000/svg">
  <defs
     id="defs2313" />
  <sodipodi:namedview
     id="namedview2311"
     pagecolor="#505050"
     bordercolor="#eeeeee"
     borderopacity="1"
     inkscape:pageshadow="0"
     inkscape:pageopacity="0"
     inkscape:pagecheckerboard="0"
     showgrid="false"
     inkscape:zoom="14.583333"
     inkscape:cx="17.965714"
     inkscape:cy="18"
     inkscape:window-width="1366"
     inkscape:window-height="740"
     inkscape:window-x="0"
     inkscape:window-y="28"
     inkscape:window-maximized="1"
     inkscape:current-layer="layer8" />
  <g
     inkscape:groupmode="layer"
     id="layer8"
     inkscape:label="Layer 2"
     style="display:inline">
    <g
       id="g2434"
       transform="matrix(0.73019973,0,0,0.73019973,0.22000606,0.05493807)">
      <circle
         fill="#ffd983"
         cx="18"
         cy="18"
         r="18"
         id="circle2395" />
      <g
         fill="#ffcc4d"
         id="g2415">
        <circle
           cx="10.5"
           cy="8.5"
           r="3.5"
           id="circle2397" />
        <circle
           cx="20"
           cy="17"
           r="3"
           id="circle2399" />
        <circle
           cx="24.5"
           cy="28.5"
           r="3.5"
           id="circle2401" />
        <circle
           cx="22"
           cy="5"
           r="2"
           id="circle2403" />
        <circle
           cx="3"
           cy="18"
           r="1"
           id="circle2405" />
        <circle
           cx="30"
           cy="9"
           r="1"
           id="circle2407" />
        <circle
           cx="15"
           cy="31"
           r="1"
           id="circle2409" />
        <circle
           cx="32"
           cy="19"
           r="2"
           id="circle2411" />
        <circle
           cx="10"
           cy="23"
           r="2"
           id="circle2413" />
      </g>
    </g>
    <path
       fill="#e1e8ed"
       d="m 28.02356,19.546126 c -0.825264,0 -1.619678,0.128546 -2.3691,0.366356 -0.884396,-2.606911 -3.290774,-4.479824 -6.127783,-4.479824 -3.043966,0 -5.591746,2.156999 -6.297463,5.060851 -0.753279,-0.586168 -1.682665,-0.946098 -2.700748,-0.946098 -2.4847925,0 -4.4991069,2.070875 -4.4991069,4.627652 0,0.620878 0.123404,1.209617 0.3393612,1.752081 C 5.939377,25.802455 5.4958937,25.71633 5.0292721,25.71633 c -2.7611657,0 -4.99914964,2.302256 -4.99914964,5.141834 C 0.03012246,33.697744 2.2681064,36 5.0292721,36 H 28.024846 c 4.416837,0 7.998125,-3.681554 7.998125,-8.226937 0,-4.544096 -3.581288,-8.226937 -7.999411,-8.226937 z"
       id="path2307"
       style="stroke-width:1.28546" />
  </g>
  <g
     inkscape:groupmode="layer"
     id="layer7"
     inkscape:label="Layer 1"
     style="display:none" />
</svg>
