<?xml version="1.0" encoding="UTF-8" standalone="no"?>
<svg
   viewBox="0 0 36 36"
   version="1.1"
   id="svg1836"
   sodipodi:docname="moon behind rain cloud.svg"
   inkscape:version="1.1 (ce6663b3b7, 2021-05-25)"
   xmlns:inkscape="http://www.inkscape.org/namespaces/inkscape"
   xmlns:sodipodi="http://sodipodi.sourceforge.net/DTD/sodipodi-0.dtd"
   xmlns="http://www.w3.org/2000/svg"
   xmlns:svg="http://www.w3.org/2000/svg">
  <defs
     id="defs1840" />
  <sodipodi:namedview
     id="namedview1838"
     pagecolor="#505050"
     bordercolor="#eeeeee"
     borderopacity="1"
     inkscape:pageshadow="0"
     inkscape:pageopacity="0"
     inkscape:pagecheckerboard="0"
     showgrid="false"
     inkscape:zoom="14.583333"
     inkscape:cx="17.965714"
     inkscape:cy="18"
     inkscape:window-width="1366"
     inkscape:window-height="740"
     inkscape:window-x="0"
     inkscape:window-y="28"
     inkscape:window-maximized="1"
     inkscape:current-layer="layer5" />
  <g
     inkscape:groupmode="layer"
     id="layer5"
     inkscape:label="Layer 1"
     style="display:inline">
    <g
       id="g1961"
       transform="matrix(0.48794454,0,0,0.48794454,4.8682909,3.6645403)">
      <circle
         fill="#ffd983"
         cx="18"
         cy="18"
         r="18"
         id="circle1922" />
      <g
         fill="#ffcc4d"
         id="g1942">
        <circle
           cx="10.5"
           cy="8.5"
           r="3.5"
           id="circle1924" />
        <circle
           cx="20"
           cy="17"
           r="3"
           id="circle1926" />
        <circle
           cx="24.5"
           cy="28.5"
           r="3.5"
           id="circle1928" />
        <circle
           cx="22"
           cy="5"
           r="2"
           id="circle1930" />
        <circle
           cx="3"
           cy="18"
           r="1"
           id="circle1932" />
        <circle
           cx="30"
           cy="9"
           r="1"
           id="circle1934" />
        <circle
           cx="15"
           cy="31"
           r="1"
           id="circle1936" />
        <circle
           cx="32"
           cy="19"
           r="2"
           id="circle1938" />
        <circle
           cx="10"
           cy="23"
           r="2"
           id="circle1940" />
      </g>
    </g>
    <path
       fill="#e1e8ed"
       d="m 28.023625,10.205221 c -0.823587,0 -1.615378,0.12205 -2.363067,0.348716 -0.884099,-2.470758 -3.283063,-4.2461352 -6.11382,-4.2461352 -3.034858,0 -5.576385,2.0420422 -6.279972,4.7948512 -0.751792,-0.555895 -1.677941,-0.897432 -2.693322,-0.897432 -2.4789632,0 -4.4871596,1.963068 -4.4871596,4.384596 0,0.58769 0.1230764,1.147687 0.3374344,1.660506 -0.4276904,-0.115897 -0.8697397,-0.198974 -1.3353787,-0.198974 -2.7538342,0 -4.9856193,2.180503 -4.9856193,4.871774 0,2.69127 2.2317851,4.871773 4.9856193,4.871773 H 28.022599 C 32.428734,25.794896 36,22.305681 36,18.000058 36,13.694436 32.428734,10.205221 28.023625,10.205221 Z"
       id="path1832"
       style="display:inline;stroke-width:1.02564" />
    <path
       fill="#5dadec"
       d="M 11.383697,31.908716 11.2678,28.400013 8.325249,30.1518 c -0.6553817,0.353845 -1.089226,1.050252 -1.0625595,1.84512 0.037949,1.130252 0.990765,2.026658 2.1292215,2.003069 1.137431,-0.02359 2.029735,-0.961022 1.991786,-2.091273 z M 4.2257797,30.329235 4.1088572,26.820533 1.1663059,28.57232 c -0.65538175,0.353845 -1.09025165,1.050252 -1.06255946,1.84512 0.0379485,1.131277 0.99076486,2.026658 2.12922146,2.003068 1.1384566,-0.02359 2.0307604,-0.961021 1.9928118,-2.091273 z m 14.3589113,0.553844 -0.115897,-3.508702 -2.942551,1.751787 c -0.655382,0.353844 -1.089226,1.050252 -1.062559,1.84512 0.03795,1.130251 0.990765,2.026658 2.129221,2.003068 1.137431,-0.02359 2.029735,-0.961021 1.991786,-2.091273 z m 6.131256,1.025637 -0.115897,-3.508703 -2.942551,1.751787 c -0.655382,0.353845 -1.089227,1.050252 -1.061534,1.84512 0.03795,1.130252 0.989739,2.026658 2.129221,2.003069 1.137431,-0.02359 2.028709,-0.961022 1.990761,-2.091273 z m 6.175357,-1.579481 -0.116922,-3.508702 -2.942551,1.751787 c -0.655382,0.353845 -1.089226,1.050252 -1.061534,1.84512 0.03795,1.131277 0.989739,2.026658 2.129221,2.003068 1.138457,-0.02359 2.029735,-0.961021 1.991786,-2.091273 z"
       id="path1834"
       style="display:inline;stroke-width:1.02564" />
  </g>
</svg>
